#!OML:ASF E:\Steps\Project 1\Capture day 1\Session 2\Subject.ASF
:FULLY-SPECIFIED
:DEGREES
499
root 8.91031 16.3128 19.0533 -70.7077 -88.4201 97.7012
lowerback -30.4837 -2.31386 -5.12253
upperback -3.88617 -1.7537 -0.0453325
thorax 11.7192 -1.20668 2.01905
lowerneck 0.568265 0.656626 -11.6612
upperneck 6.96684 0.0055744 15.0627
head 1.89812 -0.0117105 6.54558
rclavicle -5.11871e-015 1.27222e-014
rhumerus -35.8545 -23.8049 -76.2627
rradius 23.3657
rwrist 8.59932
rhand -9.22788 -49.5757
rfingers 7.12502
rthumb 16.7271 -78.875
lclavicle -5.11871e-015 1.27222e-014
lhumerus -27.7692 6.18115 84.1478
lradius 16.6343
lwrist -10.9121
lhand -23.8301 -12.7187
lfingers 7.12502
lthumb 2.64144 17.2446
rfemur -24.4929 8.39652 17.7987
rtibia 9.37296
rfoot -20.6504 -9.71709
rtoes -26.6906
lfemur -26.0089 -11.6533 -17.4601
ltibia 8.49823
lfoot -7.11049 -1.48948
ltoes -32.1426
500
root 8.9103 16.3135 19.049 -68.8087 -88.4815 95.7941
lowerback -30.444 -2.30964 -5.08629
upperback -3.89715 -1.76361 -0.0377058
thorax 11.6904 -1.20915 2.00527
lowerneck 0.576145 0.651378 -11.5735
upperneck 6.99545 -0.0025215 14.9906
head 1.90689 -0.0152567 6.50735
rclavicle -3.47873e-016 2.46493e-014
rhumerus -35.9495 -23.8285 -76.2882
rradius 23.4415
rwrist 8.63989
rhand -8.76405 -50.1721
rfingers 7.12502
rthumb 17.1736 -79.4332
lclavicle -3.47873e-016 2.46493e-014
lhumerus -27.8971 6.48898 83.8596
lradius 16.3316
lwrist -11.1245
lhand -23.6011 -13.0337
lfingers 7.12502
lthumb 2.86259 16.9268
rfemur -24.596 7.93382 17.9674
rtibia 9.39408
rfoot -20.5035 -9.3061
rtoes -26.8375
lfemur -26.0136 -11.8031 -17.2991
ltibia 8.50502
lfoot -7.10882 -1.35255
ltoes -32.2263
501
root 8.90952 16.3138 19.0457 -66.9891 -88.4816 93.9906
lowerback -30.4595 -2.33095 -5.11472
upperback -3.88123 -1.77787 -0.0501636
thorax 11.7159 -1.21693 2.00119
lowerneck 0.575445 0.638788 -11.4398
upperneck 7.01932 -0.0198871 14.91
head 1.91712 -0.0222965 6.45831
rclavicle 6.33626e-015 2.54444e-014
rhumerus -35.962 -23.879 -76.3405
rradius 23.4473
rwrist 8.6565
rhand -8.4067 -50.4922
rfingers 7.12502
rthumb 17.5175 -79.7229
lclavicle 6.33626e-015 2.54444e-014
lhumerus -27.9955 6.52945 83.6615
lradius 16.0765
lwrist -11.1587
lhand -23.6368 -13.1279
lfingers 7.12502
lthumb 2.82809 16.8331
rfemur -24.6533 7.71021 18.0372
rtibia 9.56015
rfoot -20.5733 -9.15676
rtoes -27.0795
lfemur -26.046 -11.863 -17.2636
ltibia 8.54352
lfoot -7.07463 -1.35228
ltoes -33.2187
502
root 8.9032 16.3103 19.0443 -64.5893 -88.3379 91.6241
lowerback -30.5786 -2.39029 -5.27176
upperback -3.82719 -1.78709 -0.0891355
thorax 11.8288 -1.22897 2.03619
lowerneck 0.540397 0.609115 -11.3126
upperneck 7.04449 -0.0577775 14.84
head 1.93621 -0.0380035 6.41376
rclavicle 1.07592e-014 2.38542e-014
rhumerus -35.9141 -23.9987 -76.3548
rradius 23.4035
rwrist 8.64603
rhand -8.51688 -50.4575
rfingers 7.12502
rthumb 17.4114 -79.6977
lclavicle 1.07592e-014 2.38542e-014
lhumerus -28.0024 7.04793 83.3427
lradius 15.7
lwrist -11.7885
lhand -23.6268 -13.0255
lfingers 7.12502
lthumb 2.83782 16.9353
rfemur -24.6226 7.63358 17.8905
rtibia 9.40965
rfoot -20.5373 -9.21432
rtoes -27.3254
lfemur -26.0573 -11.7707 -17.5149
ltibia 8.53777
lfoot -7.0661 -1.5843
ltoes -34.2182
503
root 8.8948 16.3056 19.0412 -61.0453 -88.2246 88.0968
lowerback -30.6923 -2.45111 -5.40459
upperback -3.79015 -1.81228 -0.0884372
thorax 11.9227 -1.24768 2.09482
lowerneck 0.509254 0.588385 -11.2996
upperneck 7.0702 -0.0824662 14.795
head 1.95267 -0.0491422 6.39724
rclavicle -8.67198e-015 -3.69739e-014
rhumerus -35.9653 -24.1786 -76.2603
rradius 23.4479
rwrist 8.75242
rhand -8.5528 -50.3278
rfingers 7.12502
rthumb 17.3769 -79.571
lclavicle -8.67198e-015 -3.69739e-014
lhumerus -28.0855 7.71858 83.0462
lradius 15.3287
lwrist -12.486
lhand -23.5588 -12.9838
lfingers 7.12502
lthumb 2.90344 16.9762
rfemur -24.5878 7.43035 17.862
rtibia 9.53285
rfoot -20.7709 -9.17984
rtoes -27.5284
lfemur -26.0194 -11.8199 -17.6614
ltibia 8.446
lfoot -7.04642 -1.69337
ltoes -34.0013
504
root 8.89442 16.306 19.0373 -60.3 -88.2887 87.353
lowerback -30.6923 -2.43825 -5.36663
upperback -3.77819 -1.813 -0.0365656
thorax 11.9381 -1.24694 2.12976
lowerneck 0.465576 0.578844 -11.3488
upperneck 7.09873 -0.0896217 14.757
head 1.96959 -0.0521915 6.39403
rclavicle 8.77137e-015 -4.77083e-015
rhumerus -35.9648 -24.1306 -76.2584
rradius 23.5232
rwrist 8.64174
rhand -8.49117 -50.3682
rfingers 7.12502
rthumb 17.4362 -79.6062
lclavicle 8.77137e-015 -4.77083e-015
lhumerus -28.2293 8.14493 82.8691
lradius 15.0831
lwrist -12.866
lhand -23.6482 -12.8676
lfingers 7.12502
lthumb 2.81715 17.0935
rfemur -24.6188 7.61131 17.8956
rtibia 9.42532
rfoot -20.6349 -9.21736
rtoes -26.9073
lfemur -26.005 -11.9246 -17.5142
ltibia 8.39406
lfoot -7.01741 -1.54564
ltoes -33.3269
505
root 8.89567 16.3068 19.0342 -59.9455 -88.3165 86.9595
lowerback -30.6413 -2.46053 -5.36121
upperback -3.74866 -1.84637 -0.00761153
thorax 11.9535 -1.26181 2.14634
lowerneck 0.453559 0.587782 -11.3358
upperneck 7.12373 -0.0745392 14.6956
head 1.97734 -0.0447634 6.37262
rclavicle 4.22417e-015 1.19271e-015
rhumerus -35.8293 -23.8886 -76.4268
rradius 23.5013
rwrist 8.34018
rhand -8.61931 -50.4614
rfingers 7.12502
rthumb 17.3129 -79.7102
lclavicle 4.22417e-015 1.19271e-015
lhumerus -28.4038 8.52041 82.6404
lradius 14.9212
lwrist -13.279
lhand -23.884 -12.7637
lfingers 7.12502
lthumb 2.58939 17.2003
rfemur -24.5566 7.76582 17.9032
rtibia 9.38066
rfoot -20.5438 -9.30265
rtoes -26.2686
lfemur -25.9657 -12.0197 -17.427
ltibia 8.38622
lfoot -7.01578 -1.43885
ltoes -33.3363
506
root 8.89139 16.3072 19.0319 -59.0258 -88.3036 85.9412
lowerback -30.5952 -2.4762 -5.37961
upperback -3.69407 -1.85524 -0.0192093
thorax 11.9961 -1.26607 2.14125
lowerneck 0.454652 0.585083 -11.2744
upperneck 7.14342 -0.0772817 14.6317
head 1.98379 -0.0458185 6.34168
rclavicle 6.4605e-016 -1.86858e-014
rhumerus -35.7828 -23.6446 -76.5943
rradius 23.5982
rwrist 8.11509
rhand -8.5694 -50.5917
rfingers 7.12502
rthumb 17.3609 -79.8363
lclavicle 6.4605e-016 -1.86858e-014
lhumerus -28.5839 8.97382 82.3164
lradius 14.7409
lwrist -13.7799
lhand -23.9805 -12.8549
lfingers 7.12502
lthumb 2.49623 17.1103
rfemur -24.3693 7.75718 17.9374
rtibia 9.49075
rfoot -20.7077 -9.40108
rtoes -26.3072
lfemur -25.8141 -12.0936 -17.4447
ltibia 8.33255
lfoot -7.04953 -1.36703
ltoes -34.5388
507
root 8.88522 16.3091 19.0304 -59.4089 -88.3858 86.2189
lowerback -30.5631 -2.41954 -5.29966
upperback -3.64831 -1.80419 -0.0232493
thorax 12.0292 -1.23873 2.11423
lowerneck 0.446012 0.567744 -11.2095
upperneck 7.16897 -0.100076 14.5727
head 1.99623 -0.0562284 6.31159
rclavicle -6.21202e-015 3.57812e-015
rhumerus -35.8545 -23.5776 -76.6304
rradius 23.7338
rwrist 8.01245
rhand -8.52899 -50.6846
rfingers 7.12502
rthumb 17.3998 -79.9258
lclavicle -6.21202e-015 3.57812e-015
lhumerus -28.7303 9.66878 81.8661
lradius 14.4247
lwrist -14.6736
lhand -23.7439 -13.0096
lfingers 7.12502
lthumb 2.72473 16.9528
rfemur -24.2186 7.79424 18.0629
rtibia 9.47436
rfoot -20.7195 -9.43926
rtoes -26.4965
lfemur -25.6184 -12.0504 -17.3916
ltibia 8.2467
lfoot -7.04388 -1.27659
ltoes -35.4144
